<svg width="510" height="522" viewBox="0 0 510 522" fill="none" xmlns="http://www.w3.org/2000/svg">
<circle cx="255" cy="255" r="255" transform="matrix(-1 0 0 1 510 6)" fill="#FBE0DC"/>
<path d="M359.074 114.205L369.857 190.1C370.687 195.906 365.71 198.809 361.148 198.809C353.268 198.809 349.95 195.076 348.292 190.1C337.094 155.263 321.335 139.504 299.769 139.504H217.654V259.359H280.692C297.281 259.359 299.354 254.382 304.331 235.719C305.575 230.743 308.893 227.01 314.699 227.01C321.749 227.01 325.482 230.328 325.482 234.89V311.199C325.482 315.346 321.749 318.664 314.699 318.664C308.893 318.664 305.575 315.346 304.331 309.955C299.354 291.707 297.281 286.73 280.692 286.73H217.654V365.528C217.654 376.725 225.119 381.287 250.002 388.337C254.979 389.582 257.882 392.485 257.882 397.461C257.882 400.364 257.053 404.512 253.735 407H139.686C136.783 404.512 135.539 400.364 135.539 397.461C135.539 392.485 138.442 389.582 143.833 388.337C159.593 383.361 163.74 377.555 163.74 365.528V152.36C163.74 140.333 159.593 134.527 143.833 129.55C138.442 128.306 135.539 125.403 135.539 120.426C135.539 117.523 136.783 113.376 139.686 110.888H322.579C334.606 110.888 343.315 105.911 350.78 105.911C354.512 105.911 357.83 107.57 359.074 114.205Z" fill="#1B1B1B"/>
</svg>